<?xml version="1.0" encoding="UTF-8" standalone="no"?>
<!-- Created with Inkscape (http://www.inkscape.org/) -->

<svg
   xmlns:dc="http://purl.org/dc/elements/1.1/"
   xmlns:cc="http://creativecommons.org/ns#"
   xmlns:rdf="http://www.w3.org/1999/02/22-rdf-syntax-ns#"
   xmlns:svg="http://www.w3.org/2000/svg"
   xmlns="http://www.w3.org/2000/svg"
   xmlns:sodipodi="http://sodipodi.sourceforge.net/DTD/sodipodi-0.dtd"
   xmlns:inkscape="http://www.inkscape.org/namespaces/inkscape"
   width="69.373383mm"
   height="48.374851mm"
   viewBox="0 0 69.373383 48.374851"
   version="1.1"
   id="svg26528"
   inkscape:version="0.92.3pre0 (0ab9bec, 2018-03-03)"
   sodipodi:docname="200-breuning2000-figure3.svg">
  <defs
     id="defs26522" />
  <sodipodi:namedview
     id="base"
     pagecolor="#ffffff"
     bordercolor="#666666"
     borderopacity="1.0"
     inkscape:pageopacity="0.0"
     inkscape:pageshadow="2"
     inkscape:zoom="1.4"
     inkscape:cx="120.59329"
     inkscape:cy="-34.077534"
     inkscape:document-units="mm"
     inkscape:current-layer="layer1"
     showgrid="false"
     inkscape:measure-start="0,0"
     inkscape:measure-end="0,0"
     fit-margin-top="0.1"
     fit-margin-left="0.1"
     fit-margin-right="0.1"
     fit-margin-bottom="0.1"
     inkscape:window-width="1916"
     inkscape:window-height="1041"
     inkscape:window-x="1920"
     inkscape:window-y="18"
     inkscape:window-maximized="0" />
  <metadata
     id="metadata26525">
    <rdf:RDF>
      <cc:Work
         rdf:about="">
        <dc:format>image/svg+xml</dc:format>
        <dc:type
           rdf:resource="http://purl.org/dc/dcmitype/StillImage" />
        <dc:title></dc:title>
      </cc:Work>
    </rdf:RDF>
  </metadata>
  <g
     inkscape:label="Layer 1"
     inkscape:groupmode="layer"
     id="layer1"
     transform="translate(-17.287818,-17.404459)">
    <g
       id="g28201"
       transform="matrix(0.35277777,0,0,0.35277777,-4.916149,6.4202719)" />
    <g
       id="g29345">
      <path
         style="opacity:1;vector-effect:none;fill:#000000;fill-opacity:1;fill-rule:evenodd;stroke:none;stroke-width:0.35277778;stroke-linecap:butt;stroke-linejoin:miter;stroke-miterlimit:4;stroke-dasharray:none;stroke-dashoffset:0;stroke-opacity:1"
         d="m 62.219533,33.50625 -0.128157,-0.338998 -0.296277,-0.16812 -0.296281,0.16812 -0.126777,0.338998 0.126777,0.338998 0.296281,0.169496 0.296277,-0.169496 0.128157,-0.338998"
         id="path14813"
         inkscape:connector-curvature="0" />
      <path
         style="opacity:1;vector-effect:none;fill:#000000;fill-opacity:1;fill-rule:nonzero;stroke:none;stroke-width:0.35277778;stroke-linecap:butt;stroke-linejoin:miter;stroke-miterlimit:4;stroke-dasharray:none;stroke-dashoffset:0;stroke-opacity:1"
         d="m 62.134094,33.548968 -0.126778,-0.338999 0.04272,0.04272 -0.296277,-0.169499 h 0.08406 l -0.296277,0.169499 0.04272,-0.04272 -0.126778,0.338999 v -0.04272 l 0.126778,0.338998 -0.04272,-0.04272 0.296277,0.169499 h -0.08406 l 0.296277,-0.169499 -0.04272,0.04272 0.126778,-0.338998 0.169499,0.04272 -0.126778,0.338998 -0.04272,0.04134 -0.296277,0.169499 h -0.08406 l -0.296277,-0.169499 -0.04272,-0.04134 -0.126778,-0.338998 v -0.04272 l 0.126778,-0.338998 0.04272,-0.04134 0.296277,-0.1695 h 0.08406 l 0.296277,0.1695 0.04272,0.04134 0.126778,0.338998"
         id="path14815"
         inkscape:connector-curvature="0" />
      <path
         style="opacity:1;vector-effect:none;fill:#000000;fill-opacity:1;fill-rule:nonzero;stroke:none;stroke-width:0.35277778;stroke-linecap:butt;stroke-linejoin:miter;stroke-miterlimit:4;stroke-dasharray:none;stroke-dashoffset:0;stroke-opacity:1"
         d="m 62.134094,33.50625 v 0.04272 l 0.169499,-0.04272 v 0.04272"
         id="path14817"
         inkscape:connector-curvature="0" />
      <path
         style="opacity:1;vector-effect:none;fill:#000000;fill-opacity:1;fill-rule:evenodd;stroke:none;stroke-width:0.35277778;stroke-linecap:butt;stroke-linejoin:miter;stroke-miterlimit:4;stroke-dasharray:none;stroke-dashoffset:0;stroke-opacity:1"
         d="m 65.732152,33.252691 -0.126778,-0.338998 -0.296281,-0.126778 -0.296276,0.126778 -0.126778,0.338998 0.126778,0.380337 0.296276,0.128157 0.296281,-0.128157 0.126778,-0.380337"
         id="path14819"
         inkscape:connector-curvature="0" />
      <path
         style="opacity:1;vector-effect:none;fill:#000000;fill-opacity:1;fill-rule:nonzero;stroke:none;stroke-width:0.35277778;stroke-linecap:butt;stroke-linejoin:miter;stroke-miterlimit:4;stroke-dasharray:none;stroke-dashoffset:0;stroke-opacity:1"
         d="m 65.648092,33.295409 -0.126778,-0.338999 0.04134,0.04272 -0.296277,-0.128157 h 0.08544 l -0.296281,0.128157 0.04272,-0.04272 -0.128157,0.338999 v -0.04272 l 0.128157,0.380337 -0.04272,-0.08406 0.296281,0.126781 h -0.08544 l 0.296277,-0.126781 -0.04134,0.08406 0.126778,-0.380337 0.169499,0.04272 -0.126778,0.38034 -0.04272,0.04272 -0.296277,0.126781 h -0.08544 l -0.296277,-0.126781 -0.04134,-0.04272 -0.126782,-0.38034 v -0.04272 l 0.126782,-0.338998 0.04134,-0.08406 0.296277,-0.126782 h 0.08544 l 0.296277,0.126782 0.04272,0.08406 0.126778,0.338998"
         id="path14821"
         inkscape:connector-curvature="0" />
      <path
         style="opacity:1;vector-effect:none;fill:#000000;fill-opacity:1;fill-rule:nonzero;stroke:none;stroke-width:0.35277778;stroke-linecap:butt;stroke-linejoin:miter;stroke-miterlimit:4;stroke-dasharray:none;stroke-dashoffset:0;stroke-opacity:1"
         d="m 65.648092,33.252691 v 0.04272 l 0.169499,-0.04272 v 0.04272"
         id="path14823"
         inkscape:connector-curvature="0" />
      <path
         style="opacity:1;vector-effect:none;fill:#000000;fill-opacity:1;fill-rule:evenodd;stroke:none;stroke-width:0.35277778;stroke-linecap:butt;stroke-linejoin:miter;stroke-miterlimit:4;stroke-dasharray:none;stroke-dashoffset:0;stroke-opacity:1"
         d="m 66.536926,38.078581 -0.126778,-0.338998 -0.29628,-0.126781 -0.296277,0.126781 -0.126778,0.338998 0.126778,0.338995 0.296277,0.169499 0.29628,-0.169499 0.126778,-0.338995"
         id="path14825"
         inkscape:connector-curvature="0" />
      <path
         style="opacity:1;vector-effect:none;fill:#000000;fill-opacity:1;fill-rule:nonzero;stroke:none;stroke-width:0.35277778;stroke-linecap:butt;stroke-linejoin:miter;stroke-miterlimit:4;stroke-dasharray:none;stroke-dashoffset:0;stroke-opacity:1"
         d="m 66.452866,38.121299 -0.128157,-0.338998 0.04272,0.04272 -0.296277,-0.12816 h 0.08544 l -0.29628,0.12816 0.04134,-0.04272 -0.126778,0.338998 v -0.04272 l 0.126778,0.338995 -0.04134,-0.04272 0.29628,0.169499 h -0.08544 l 0.296277,-0.169499 -0.04272,0.04272 0.128157,-0.338995 0.16812,0.04272 -0.126778,0.337619 -0.04134,0.04272 -0.296277,0.169499 h -0.08544 l -0.296277,-0.169499 -0.04272,-0.04272 -0.126778,-0.337619 v -0.04272 l 0.126778,-0.338998 0.04272,-0.08406 0.296277,-0.126781 h 0.08544 l 0.296277,0.126781 0.04134,0.08406 0.126778,0.338998"
         id="path14827"
         inkscape:connector-curvature="0" />
      <path
         style="opacity:1;vector-effect:none;fill:#000000;fill-opacity:1;fill-rule:nonzero;stroke:none;stroke-width:0.35277778;stroke-linecap:butt;stroke-linejoin:miter;stroke-miterlimit:4;stroke-dasharray:none;stroke-dashoffset:0;stroke-opacity:1"
         d="m 66.452866,38.078581 v 0.04272 l 0.16812,-0.04272 v 0.04272"
         id="path14829"
         inkscape:connector-curvature="0" />
      <path
         style="opacity:1;vector-effect:none;fill:#000000;fill-opacity:1;fill-rule:evenodd;stroke:none;stroke-width:0.35277778;stroke-linecap:butt;stroke-linejoin:miter;stroke-miterlimit:4;stroke-dasharray:none;stroke-dashoffset:0;stroke-opacity:1"
         d="M 64.589758,41.719357 64.462981,41.380359 64.1667,41.21086 l -0.296277,0.169499 -0.126781,0.338998 0.126781,0.338999 0.296277,0.126777 0.296281,-0.126777 0.126777,-0.338999"
         id="path14831"
         inkscape:connector-curvature="0" />
      <path
         style="opacity:1;vector-effect:none;fill:#000000;fill-opacity:1;fill-rule:nonzero;stroke:none;stroke-width:0.35277778;stroke-linecap:butt;stroke-linejoin:miter;stroke-miterlimit:4;stroke-dasharray:none;stroke-dashoffset:0;stroke-opacity:1"
         d="m 64.504319,41.762075 -0.126778,-0.338998 0.04272,0.04272 -0.296277,-0.169499 h 0.08406 l -0.296277,0.169499 0.04272,-0.04272 -0.126777,0.338998 v -0.04272 l 0.126777,0.338999 -0.04272,-0.08544 0.296277,0.126778 h -0.08406 l 0.296277,-0.126778 -0.04272,0.08544 0.126778,-0.338999 0.169499,0.04272 -0.126777,0.337619 -0.04272,0.04272 -0.296277,0.126778 h -0.08406 l -0.296276,-0.126778 -0.04272,-0.04272 -0.126778,-0.337619 v -0.04272 l 0.126778,-0.338998 0.04272,-0.04272 0.296276,-0.168123 h 0.08406 l 0.296277,0.168123 0.04272,0.04272 0.126777,0.338998"
         id="path14833"
         inkscape:connector-curvature="0" />
      <path
         style="opacity:1;vector-effect:none;fill:#000000;fill-opacity:1;fill-rule:nonzero;stroke:none;stroke-width:0.35277778;stroke-linecap:butt;stroke-linejoin:miter;stroke-miterlimit:4;stroke-dasharray:none;stroke-dashoffset:0;stroke-opacity:1"
         d="m 64.504319,41.719357 v 0.04272 l 0.169499,-0.04272 v 0.04272"
         id="path14835"
         inkscape:connector-curvature="0" />
      <path
         style="opacity:1;vector-effect:none;fill:#000000;fill-opacity:1;fill-rule:evenodd;stroke:none;stroke-width:0.35277778;stroke-linecap:butt;stroke-linejoin:miter;stroke-miterlimit:4;stroke-dasharray:none;stroke-dashoffset:0;stroke-opacity:1"
         d="m 71.659093,40.830523 -0.126777,-0.338998 -0.296277,-0.169499 -0.296281,0.169499 -0.126777,0.338998 0.126777,0.338995 0.296281,0.126781 0.296277,-0.126781 0.126777,-0.338995"
         id="path14837"
         inkscape:connector-curvature="0" />
      <path
         style="opacity:1;vector-effect:none;fill:#000000;fill-opacity:1;fill-rule:nonzero;stroke:none;stroke-width:0.35277778;stroke-linecap:butt;stroke-linejoin:miter;stroke-miterlimit:4;stroke-dasharray:none;stroke-dashoffset:0;stroke-opacity:1"
         d="m 71.575033,40.871862 -0.126777,-0.337619 0.04134,0.04134 -0.296281,-0.16812 h 0.08544 l -0.296277,0.16812 0.04134,-0.04134 -0.126778,0.337619 v -0.04134 l 0.126778,0.338995 -0.04134,-0.08544 0.296277,0.126778 h -0.08544 l 0.296281,-0.126778 -0.04134,0.08544 0.126777,-0.338995 0.1695,0.04134 -0.128158,0.338998 -0.04134,0.04272 -0.296276,0.126778 h -0.08544 l -0.296277,-0.126778 -0.04272,-0.04272 -0.126778,-0.338998 v -0.04134 l 0.126778,-0.338998 0.04272,-0.04272 0.296277,-0.169499 h 0.08544 l 0.296276,0.169499 0.04134,0.04272 0.128158,0.338998"
         id="path14839"
         inkscape:connector-curvature="0" />
      <path
         style="opacity:1;vector-effect:none;fill:#000000;fill-opacity:1;fill-rule:nonzero;stroke:none;stroke-width:0.35277778;stroke-linecap:butt;stroke-linejoin:miter;stroke-miterlimit:4;stroke-dasharray:none;stroke-dashoffset:0;stroke-opacity:1"
         d="m 71.575033,40.830523 v 0.04134 l 0.1695,-0.04134 v 0.04134"
         id="path14841"
         inkscape:connector-curvature="0" />
      <path
         style="opacity:1;vector-effect:none;fill:#000000;fill-opacity:1;fill-rule:evenodd;stroke:none;stroke-width:0.35277778;stroke-linecap:butt;stroke-linejoin:miter;stroke-miterlimit:4;stroke-dasharray:none;stroke-dashoffset:0;stroke-opacity:1"
         d="m 67.934258,44.005523 -0.126778,-0.338998 -0.296281,-0.126781 -0.296277,0.126781 -0.128157,0.338998 0.128157,0.338995 0.296277,0.168123 0.296281,-0.168123 0.126778,-0.338995"
         id="path14843"
         inkscape:connector-curvature="0" />
      <path
         style="opacity:1;vector-effect:none;fill:#000000;fill-opacity:1;fill-rule:nonzero;stroke:none;stroke-width:0.35277778;stroke-linecap:butt;stroke-linejoin:miter;stroke-miterlimit:4;stroke-dasharray:none;stroke-dashoffset:0;stroke-opacity:1"
         d="m 67.848818,44.046862 -0.126777,-0.337619 0.04272,0.04134 -0.296276,-0.126778 h 0.08406 l -0.296276,0.126778 0.04272,-0.04134 -0.126781,0.337619 v -0.04134 l 0.126781,0.338995 -0.04272,-0.04272 0.296276,0.169499 h -0.08406 l 0.296276,-0.169499 -0.04272,0.04272 0.126777,-0.338995 0.169499,0.04134 -0.126777,0.338998 -0.04272,0.04272 -0.296277,0.169496 h -0.08406 l -0.296282,-0.169495 -0.04272,-0.04272 -0.126778,-0.338998 v -0.04134 l 0.126778,-0.338998 0.04272,-0.08406 0.296281,-0.128157 h 0.08406 l 0.296277,0.128157 0.04272,0.08406 0.126777,0.338998"
         id="path14845"
         inkscape:connector-curvature="0" />
      <path
         style="opacity:1;vector-effect:none;fill:#000000;fill-opacity:1;fill-rule:nonzero;stroke:none;stroke-width:0.35277778;stroke-linecap:butt;stroke-linejoin:miter;stroke-miterlimit:4;stroke-dasharray:none;stroke-dashoffset:0;stroke-opacity:1"
         d="m 67.848818,44.005523 v 0.04134 l 0.169499,-0.04134 v 0.04134"
         id="path14847"
         inkscape:connector-curvature="0" />
      <path
         style="opacity:1;vector-effect:none;fill:#000000;fill-opacity:1;fill-rule:evenodd;stroke:none;stroke-width:0.35277778;stroke-linecap:butt;stroke-linejoin:miter;stroke-miterlimit:4;stroke-dasharray:none;stroke-dashoffset:0;stroke-opacity:1"
         d="m 66.536926,30.839744 -0.126778,-0.338995 -0.29628,-0.126781 -0.296277,0.126781 -0.126778,0.338995 0.126778,0.38034 0.296277,0.126778 0.29628,-0.126778 0.126778,-0.38034"
         id="path14849"
         inkscape:connector-curvature="0" />
      <path
         style="opacity:1;vector-effect:none;fill:#000000;fill-opacity:1;fill-rule:nonzero;stroke:none;stroke-width:0.35277778;stroke-linecap:butt;stroke-linejoin:miter;stroke-miterlimit:4;stroke-dasharray:none;stroke-dashoffset:0;stroke-opacity:1"
         d="m 66.452866,30.882465 -0.128157,-0.338998 0.04272,0.04272 -0.296277,-0.128157 h 0.08544 l -0.29628,0.128157 0.04134,-0.04272 -0.126778,0.338998 v -0.04272 l 0.126778,0.38034 -0.04134,-0.08406 0.29628,0.126778 h -0.08544 l 0.296277,-0.126778 -0.04272,0.08406 0.128157,-0.38034 0.16812,0.04272 -0.126778,0.380337 -0.04134,0.04272 -0.296277,0.126778 h -0.08544 l -0.296277,-0.126778 -0.04272,-0.04272 -0.126778,-0.380337 v -0.04272 l 0.126778,-0.338995 0.04272,-0.08406 0.296277,-0.12816 h 0.08544 l 0.296277,0.12816 0.04134,0.08406 0.126778,0.338995"
         id="path14851"
         inkscape:connector-curvature="0" />
      <path
         style="opacity:1;vector-effect:none;fill:#000000;fill-opacity:1;fill-rule:nonzero;stroke:none;stroke-width:0.35277778;stroke-linecap:butt;stroke-linejoin:miter;stroke-miterlimit:4;stroke-dasharray:none;stroke-dashoffset:0;stroke-opacity:1"
         d="m 66.452866,30.839744 v 0.04272 l 0.16812,-0.04272 v 0.04272"
         id="path14853"
         inkscape:connector-curvature="0" />
      <path
         style="opacity:1;vector-effect:none;fill:#000000;fill-opacity:1;fill-rule:evenodd;stroke:none;stroke-width:0.35277778;stroke-linecap:butt;stroke-linejoin:miter;stroke-miterlimit:4;stroke-dasharray:none;stroke-dashoffset:0;stroke-opacity:1"
         d="m 70.261765,33.591689 -0.126781,-0.338998 -0.296277,-0.126781 -0.338998,0.126781 -0.08406,0.338998 0.08406,0.337619 0.338998,0.169499 0.296277,-0.169499 0.126781,-0.337619"
         id="path14855"
         inkscape:connector-curvature="0" />
      <path
         style="opacity:1;vector-effect:none;fill:#000000;fill-opacity:1;fill-rule:nonzero;stroke:none;stroke-width:0.35277778;stroke-linecap:butt;stroke-linejoin:miter;stroke-miterlimit:4;stroke-dasharray:none;stroke-dashoffset:0;stroke-opacity:1"
         d="m 70.177705,33.633028 -0.126781,-0.337619 0.04272,0.04134 -0.297656,-0.126782 h 0.08544 l -0.338998,0.126782 0.04272,-0.04134 -0.08544,0.337619 v -0.04134 l 0.08544,0.337619 -0.04272,-0.08406 0.338998,0.169496 -0.08544,0.04272 0.297656,-0.169499 -0.04272,0.04134 0.126781,-0.337619 0.169496,0.04134 -0.126778,0.338998 -0.04272,0.04272 -0.29628,0.169499 h -0.08544 l -0.337619,-0.169499 -0.04272,-0.04272 -0.08406,-0.338998 v -0.04134 l 0.08406,-0.338998 0.08406,-0.08544 0.338998,-0.126778 h 0.04272 l 0.29628,0.126778 0.04272,0.08544 0.126778,0.338998"
         id="path14857"
         inkscape:connector-curvature="0" />
      <path
         style="opacity:1;vector-effect:none;fill:#000000;fill-opacity:1;fill-rule:nonzero;stroke:none;stroke-width:0.35277778;stroke-linecap:butt;stroke-linejoin:miter;stroke-miterlimit:4;stroke-dasharray:none;stroke-dashoffset:0;stroke-opacity:1"
         d="m 70.177705,33.591689 v 0.04134 l 0.169496,-0.04134 v 0.04134"
         id="path14859"
         inkscape:connector-curvature="0" />
      <path
         style="opacity:1;vector-effect:none;fill:#000000;fill-opacity:1;fill-rule:evenodd;stroke:none;stroke-width:0.35277778;stroke-linecap:butt;stroke-linejoin:miter;stroke-miterlimit:4;stroke-dasharray:none;stroke-dashoffset:0;stroke-opacity:1"
         d="m 74.114758,32.447917 -0.126777,-0.338999 -0.296281,-0.16812 -0.296277,0.16812 -0.126781,0.338999 0.126781,0.338998 0.296277,0.169495 0.296281,-0.169495 0.126777,-0.338998"
         id="path14861"
         inkscape:connector-curvature="0" />
      <path
         style="opacity:1;vector-effect:none;fill:#000000;fill-opacity:1;fill-rule:nonzero;stroke:none;stroke-width:0.35277778;stroke-linecap:butt;stroke-linejoin:miter;stroke-miterlimit:4;stroke-dasharray:none;stroke-dashoffset:0;stroke-opacity:1"
         d="m 74.029319,32.490634 -0.126778,-0.338998 0.04272,0.04272 -0.296277,-0.1695 h 0.08406 l -0.296277,0.1695 0.04272,-0.04272 -0.126778,0.338998 v -0.04272 l 0.126778,0.338998 -0.04272,-0.04272 0.296277,0.1695 h -0.08406 l 0.296277,-0.1695 -0.04272,0.04272 0.126778,-0.338998 0.169499,0.04272 -0.126778,0.338999 -0.04272,0.04134 -0.296277,0.169499 h -0.08406 l -0.296277,-0.169499 -0.04272,-0.04134 -0.126778,-0.338999 v -0.04272 l 0.126778,-0.338999 0.04272,-0.04134 0.296277,-0.169499 h 0.08406 l 0.296277,0.169499 0.04272,0.04134 0.126778,0.338999"
         id="path14863"
         inkscape:connector-curvature="0" />
      <path
         style="opacity:1;vector-effect:none;fill:#000000;fill-opacity:1;fill-rule:nonzero;stroke:none;stroke-width:0.35277778;stroke-linecap:butt;stroke-linejoin:miter;stroke-miterlimit:4;stroke-dasharray:none;stroke-dashoffset:0;stroke-opacity:1"
         d="m 74.029319,32.447917 v 0.04272 l 0.169499,-0.04272 v 0.04272"
         id="path14865"
         inkscape:connector-curvature="0" />
      <path
         style="opacity:1;vector-effect:none;fill:#000000;fill-opacity:1;fill-rule:evenodd;stroke:none;stroke-width:0.35277778;stroke-linecap:butt;stroke-linejoin:miter;stroke-miterlimit:4;stroke-dasharray:none;stroke-dashoffset:0;stroke-opacity:1"
         d="m 73.77576,35.283918 -0.126778,-0.380337 -0.296277,-0.126781 -0.29628,0.126781 -0.126778,0.380337 0.126778,0.338998 0.29628,0.126778 0.296277,-0.126778 0.126778,-0.338998"
         id="path14867"
         inkscape:connector-curvature="0" />
      <path
         style="opacity:1;vector-effect:none;fill:#000000;fill-opacity:1;fill-rule:nonzero;stroke:none;stroke-width:0.35277778;stroke-linecap:butt;stroke-linejoin:miter;stroke-miterlimit:4;stroke-dasharray:none;stroke-dashoffset:0;stroke-opacity:1"
         d="m 73.6917,35.326636 -0.126778,-0.380337 0.04134,0.04134 -0.29628,-0.126781 h 0.08544 l -0.296277,0.126781 0.04134,-0.04134 -0.126778,0.380337 v -0.04272 l 0.126778,0.338998 -0.04134,-0.08406 0.296277,0.126777 h -0.08544 l 0.29628,-0.126777 -0.04134,0.08406 0.126778,-0.338998 0.169499,0.04272 -0.128157,0.338998 -0.04134,0.04272 -0.296277,0.126777 h -0.08544 l -0.296277,-0.126777 -0.04272,-0.04272 -0.126778,-0.338998 v -0.04272 l 0.126778,-0.380337 0.04272,-0.08406 0.296277,-0.128157 h 0.08544 l 0.296277,0.128157 0.04134,0.08406 0.128157,0.380337"
         id="path14869"
         inkscape:connector-curvature="0" />
      <path
         style="opacity:1;vector-effect:none;fill:#000000;fill-opacity:1;fill-rule:nonzero;stroke:none;stroke-width:0.35277778;stroke-linecap:butt;stroke-linejoin:miter;stroke-miterlimit:4;stroke-dasharray:none;stroke-dashoffset:0;stroke-opacity:1"
         d="m 73.6917,35.283918 v 0.04272 l 0.169499,-0.04272 v 0.04272"
         id="path14871"
         inkscape:connector-curvature="0" />
      <path
         style="opacity:1;vector-effect:none;fill:#000000;fill-opacity:1;fill-rule:evenodd;stroke:none;stroke-width:0.35277778;stroke-linecap:butt;stroke-linejoin:miter;stroke-miterlimit:4;stroke-dasharray:none;stroke-dashoffset:0;stroke-opacity:1"
         d="m 74.750033,38.628417 -0.126777,-0.337619 -0.296281,-0.169499 -0.297656,0.169499 -0.126778,0.337619 0.126778,0.338999 0.297656,0.126777 0.296281,-0.126777 0.126777,-0.338999"
         id="path14873"
         inkscape:connector-curvature="0" />
      <path
         style="opacity:1;vector-effect:none;fill:#000000;fill-opacity:1;fill-rule:nonzero;stroke:none;stroke-width:0.35277778;stroke-linecap:butt;stroke-linejoin:miter;stroke-miterlimit:4;stroke-dasharray:none;stroke-dashoffset:0;stroke-opacity:1"
         d="m 74.664598,38.671135 -0.126782,-0.338995 0.04272,0.04272 -0.296277,-0.169499 h 0.08406 l -0.296277,0.169499 0.04272,-0.04272 -0.126777,0.338995 v -0.04272 l 0.126777,0.338999 -0.04272,-0.08406 0.296277,0.126777 h -0.08406 l 0.296277,-0.126777 -0.04272,0.08406 0.126782,-0.338999 0.169495,0.04272 -0.126777,0.338998 -0.04272,0.04272 -0.296281,0.126782 h -0.08406 l -0.296276,-0.126782 -0.04272,-0.04272 -0.126778,-0.338998 v -0.04272 l 0.126778,-0.337619 0.04272,-0.04272 0.296276,-0.169496 h 0.08406 l 0.296281,0.169496 0.04272,0.04272 0.126777,0.337619"
         id="path14875"
         inkscape:connector-curvature="0" />
      <path
         style="opacity:1;vector-effect:none;fill:#000000;fill-opacity:1;fill-rule:nonzero;stroke:none;stroke-width:0.35277778;stroke-linecap:butt;stroke-linejoin:miter;stroke-miterlimit:4;stroke-dasharray:none;stroke-dashoffset:0;stroke-opacity:1"
         d="m 74.664598,38.628417 v 0.04272 l 0.169495,-0.04272 v 0.04272"
         id="path14877"
         inkscape:connector-curvature="0" />
      <path
         style="opacity:1;vector-effect:none;fill:#000000;fill-opacity:1;fill-rule:evenodd;stroke:none;stroke-width:0.35277778;stroke-linecap:butt;stroke-linejoin:miter;stroke-miterlimit:4;stroke-dasharray:none;stroke-dashoffset:0;stroke-opacity:1"
         d="m 81.523091,42.227851 -0.126777,-0.338995 -0.296281,-0.126781 -0.296277,0.126781 -0.126781,0.338995 0.126781,0.337623 0.296277,0.169495 0.296281,-0.169495 0.126777,-0.337623"
         id="path14879"
         inkscape:connector-curvature="0" />
      <path
         style="opacity:1;vector-effect:none;fill:#000000;fill-opacity:1;fill-rule:nonzero;stroke:none;stroke-width:0.35277778;stroke-linecap:butt;stroke-linejoin:miter;stroke-miterlimit:4;stroke-dasharray:none;stroke-dashoffset:0;stroke-opacity:1"
         d="m 81.437652,42.269193 -0.126778,-0.338998 0.04272,0.04272 -0.296277,-0.126781 h 0.08406 l -0.296277,0.126781 0.04272,-0.04272 -0.126777,0.338998 v -0.04134 l 0.126777,0.337623 -0.04272,-0.04134 0.296277,0.168119 h -0.08406 l 0.296277,-0.168119 -0.04272,0.04134 0.126778,-0.337623 0.169499,0.04134 -0.126777,0.338998 -0.04272,0.04272 -0.296277,0.169499 h -0.08406 l -0.296276,-0.169499 -0.04272,-0.04272 -0.126778,-0.338998 v -0.04134 l 0.126778,-0.338995 0.04272,-0.08544 0.296276,-0.126781 h 0.08406 l 0.296277,0.126781 0.04272,0.08544 0.126777,0.338995"
         id="path14881"
         inkscape:connector-curvature="0" />
      <path
         style="opacity:1;vector-effect:none;fill:#000000;fill-opacity:1;fill-rule:nonzero;stroke:none;stroke-width:0.35277778;stroke-linecap:butt;stroke-linejoin:miter;stroke-miterlimit:4;stroke-dasharray:none;stroke-dashoffset:0;stroke-opacity:1"
         d="m 81.437652,42.227851 v 0.04134 l 0.169499,-0.04134 v 0.04134"
         id="path14883"
         inkscape:connector-curvature="0" />
      <path
         style="opacity:1;vector-effect:none;fill:#000000;fill-opacity:1;fill-rule:evenodd;stroke:none;stroke-width:0.35277778;stroke-linecap:butt;stroke-linejoin:miter;stroke-miterlimit:4;stroke-dasharray:none;stroke-dashoffset:0;stroke-opacity:1"
         d="m 72.378432,27.495248 -0.126781,-0.338998 -0.296277,-0.126781 -0.338999,0.126781 -0.08406,0.338998 0.08406,0.338995 0.338999,0.169499 0.296277,-0.169499 0.126781,-0.338995"
         id="path14885"
         inkscape:connector-curvature="0" />
      <path
         style="opacity:1;vector-effect:none;fill:#000000;fill-opacity:1;fill-rule:nonzero;stroke:none;stroke-width:0.35277778;stroke-linecap:butt;stroke-linejoin:miter;stroke-miterlimit:4;stroke-dasharray:none;stroke-dashoffset:0;stroke-opacity:1"
         d="m 72.294372,27.537966 -0.126781,-0.338998 0.04272,0.04272 -0.297657,-0.128157 h 0.08544 l -0.338999,0.128157 0.04272,-0.04272 -0.08544,0.338998 v -0.04272 l 0.08544,0.338995 -0.04272,-0.08544 0.338999,0.169499 -0.08544,0.04272 0.297657,-0.169499 -0.04272,0.04272 0.126781,-0.338995 0.169496,0.04272 -0.126778,0.337619 -0.04272,0.04272 -0.29628,0.169496 h -0.08544 l -0.337619,-0.169496 -0.04272,-0.04272 -0.08406,-0.337619 v -0.04272 l 0.08406,-0.338998 0.08406,-0.08406 0.338999,-0.126781 h 0.04272 l 0.29628,0.126781 0.04272,0.08406 0.126778,0.338998"
         id="path14887"
         inkscape:connector-curvature="0" />
      <path
         style="opacity:1;vector-effect:none;fill:#000000;fill-opacity:1;fill-rule:nonzero;stroke:none;stroke-width:0.35277778;stroke-linecap:butt;stroke-linejoin:miter;stroke-miterlimit:4;stroke-dasharray:none;stroke-dashoffset:0;stroke-opacity:1"
         d="m 72.294372,27.495248 v 0.04272 l 0.169496,-0.04272 v 0.04272"
         id="path14889"
         inkscape:connector-curvature="0" />
      <path
         style="opacity:1;vector-effect:none;fill:#000000;fill-opacity:1;fill-rule:evenodd;stroke:none;stroke-width:0.35277778;stroke-linecap:butt;stroke-linejoin:miter;stroke-miterlimit:4;stroke-dasharray:none;stroke-dashoffset:0;stroke-opacity:1"
         d="m 77.543317,25.294522 -0.08406,-0.338999 -0.338998,-0.126781 -0.296277,0.126781 -0.126781,0.338999 0.126781,0.337619 0.296277,0.169499 0.338998,-0.169499 0.08406,-0.337619"
         id="path14891"
         inkscape:connector-curvature="0" />
      <path
         style="opacity:1;vector-effect:none;fill:#000000;fill-opacity:1;fill-rule:nonzero;stroke:none;stroke-width:0.35277778;stroke-linecap:butt;stroke-linejoin:miter;stroke-miterlimit:4;stroke-dasharray:none;stroke-dashoffset:0;stroke-opacity:1"
         d="m 77.459257,25.33586 -0.08544,-0.338995 0.08544,0.04272 -0.338998,-0.126781 h 0.04272 l -0.29628,0.126781 0.04134,-0.04272 -0.126778,0.338995 v -0.04134 l 0.126778,0.337619 -0.04134,-0.04134 0.29628,0.168119 -0.08544,-0.04134 0.338998,-0.169495 -0.04272,0.08406 0.08544,-0.337619 0.169499,0.04134 -0.08544,0.338999 -0.04134,0.04272 -0.338995,0.1695 h -0.08544 l -0.296277,-0.1695 -0.04134,-0.04272 -0.128157,-0.338999 v -0.04134 l 0.128157,-0.338999 0.04134,-0.08544 0.296277,-0.126778 h 0.08544 l 0.338995,0.126778 0.04134,0.08544 0.08544,0.338999"
         id="path14893"
         inkscape:connector-curvature="0" />
      <path
         style="opacity:1;vector-effect:none;fill:#000000;fill-opacity:1;fill-rule:nonzero;stroke:none;stroke-width:0.35277778;stroke-linecap:butt;stroke-linejoin:miter;stroke-miterlimit:4;stroke-dasharray:none;stroke-dashoffset:0;stroke-opacity:1"
         d="m 77.459257,25.294522 v 0.04134 l 0.169499,-0.04134 v 0.04134"
         id="path14895"
         inkscape:connector-curvature="0" />
      <path
         style="opacity:1;vector-effect:none;fill:#000000;fill-opacity:1;fill-rule:evenodd;stroke:none;stroke-width:0.35277778;stroke-linecap:butt;stroke-linejoin:miter;stroke-miterlimit:4;stroke-dasharray:none;stroke-dashoffset:0;stroke-opacity:1"
         d="m 78.009093,30.24719 -0.126778,-0.338998 -0.296276,-0.169499 -0.296281,0.169499 -0.126778,0.338998 0.126778,0.338995 0.296281,0.126781 0.296276,-0.126781 0.126778,-0.338995"
         id="path14897"
         inkscape:connector-curvature="0" />
      <path
         style="opacity:1;vector-effect:none;fill:#000000;fill-opacity:1;fill-rule:nonzero;stroke:none;stroke-width:0.35277778;stroke-linecap:butt;stroke-linejoin:miter;stroke-miterlimit:4;stroke-dasharray:none;stroke-dashoffset:0;stroke-opacity:1"
         d="m 77.925033,30.288529 -0.126777,-0.337619 0.04134,0.04134 -0.296281,-0.16812 h 0.08544 l -0.296276,0.16812 0.04134,-0.04134 -0.126778,0.337619 v -0.04134 l 0.126778,0.338995 -0.04134,-0.08544 0.296276,0.126778 h -0.08544 l 0.296281,-0.126778 -0.04134,0.08544 0.126777,-0.338995 0.169499,0.04134 -0.128157,0.338998 -0.04134,0.04272 -0.296277,0.126778 h -0.08544 l -0.296277,-0.126778 -0.04272,-0.04272 -0.126778,-0.338998 v -0.04134 l 0.126778,-0.338998 0.04272,-0.04272 0.296277,-0.169499 h 0.08544 l 0.296277,0.169499 0.04134,0.04272 0.128157,0.338998"
         id="path14899"
         inkscape:connector-curvature="0" />
      <path
         style="opacity:1;vector-effect:none;fill:#000000;fill-opacity:1;fill-rule:nonzero;stroke:none;stroke-width:0.35277778;stroke-linecap:butt;stroke-linejoin:miter;stroke-miterlimit:4;stroke-dasharray:none;stroke-dashoffset:0;stroke-opacity:1"
         d="m 77.925033,30.24719 v 0.04134 l 0.169499,-0.04134 v 0.04134"
         id="path14901"
         inkscape:connector-curvature="0" />
      <path
         style="opacity:1;vector-effect:none;fill:#000000;fill-opacity:1;fill-rule:evenodd;stroke:none;stroke-width:0.35277778;stroke-linecap:butt;stroke-linejoin:miter;stroke-miterlimit:4;stroke-dasharray:none;stroke-dashoffset:0;stroke-opacity:1"
         d="m 81.100033,32.786915 -0.126777,-0.338998 -0.296281,-0.126782 -0.297656,0.126782 -0.126778,0.338998 0.126778,0.338995 0.297656,0.169499 0.296281,-0.169499 0.126777,-0.338995"
         id="path14903"
         inkscape:connector-curvature="0" />
      <path
         style="opacity:1;vector-effect:none;fill:#000000;fill-opacity:1;fill-rule:nonzero;stroke:none;stroke-width:0.35277778;stroke-linecap:butt;stroke-linejoin:miter;stroke-miterlimit:4;stroke-dasharray:none;stroke-dashoffset:0;stroke-opacity:1"
         d="m 81.014598,32.829633 -0.126782,-0.338999 0.04272,0.04272 -0.296277,-0.128161 h 0.08406 l -0.296277,0.128161 0.04272,-0.04272 -0.126778,0.338999 v -0.04272 l 0.126778,0.338995 -0.04272,-0.04272 0.296277,0.169499 h -0.08406 l 0.296277,-0.169499 -0.04272,0.04272 0.126782,-0.338995 0.169495,0.04272 -0.126778,0.337619 -0.04272,0.04272 -0.296281,0.1695 h -0.08406 l -0.296277,-0.1695 -0.04272,-0.04272 -0.126778,-0.337619 v -0.04272 l 0.126778,-0.338998 0.04272,-0.08406 0.296277,-0.126782 h 0.08406 l 0.296281,0.126782 0.04272,0.08406 0.126778,0.338998"
         id="path14905"
         inkscape:connector-curvature="0" />
      <path
         style="opacity:1;vector-effect:none;fill:#000000;fill-opacity:1;fill-rule:nonzero;stroke:none;stroke-width:0.35277778;stroke-linecap:butt;stroke-linejoin:miter;stroke-miterlimit:4;stroke-dasharray:none;stroke-dashoffset:0;stroke-opacity:1"
         d="m 81.014598,32.786915 v 0.04272 l 0.169495,-0.04272 v 0.04272"
         id="path14907"
         inkscape:connector-curvature="0" />
      <path
         style="opacity:1;vector-effect:none;fill:#000000;fill-opacity:1;fill-rule:evenodd;stroke:none;stroke-width:0.35277778;stroke-linecap:butt;stroke-linejoin:miter;stroke-miterlimit:4;stroke-dasharray:none;stroke-dashoffset:0;stroke-opacity:1"
         d="m 83.639758,35.877851 -0.126778,-0.338994 -0.29628,-0.126782 -0.296277,0.126782 -0.126781,0.338994 0.126781,0.337623 0.296277,0.169495 0.29628,-0.169495 0.126778,-0.337623"
         id="path14909"
         inkscape:connector-curvature="0" />
      <path
         style="opacity:1;vector-effect:none;fill:#000000;fill-opacity:1;fill-rule:nonzero;stroke:none;stroke-width:0.35277778;stroke-linecap:butt;stroke-linejoin:miter;stroke-miterlimit:4;stroke-dasharray:none;stroke-dashoffset:0;stroke-opacity:1"
         d="m 83.554319,35.919193 -0.126778,-0.338998 0.04272,0.04272 -0.296277,-0.126781 h 0.08406 l -0.296277,0.126781 0.04272,-0.04272 -0.126778,0.338998 v -0.04134 l 0.126778,0.337623 -0.04272,-0.04134 0.296277,0.168119 h -0.08406 l 0.296277,-0.168119 -0.04272,0.04134 0.126778,-0.337623 0.169499,0.04134 -0.126778,0.338999 -0.04272,0.04272 -0.296277,0.1695 h -0.08406 l -0.296277,-0.1695 -0.04272,-0.04272 -0.126778,-0.338999 v -0.04134 l 0.126778,-0.338994 0.04272,-0.08544 0.296277,-0.126781 h 0.08406 l 0.296277,0.126781 0.04272,0.08544 0.126778,0.338994"
         id="path14911"
         inkscape:connector-curvature="0" />
      <path
         style="opacity:1;vector-effect:none;fill:#000000;fill-opacity:1;fill-rule:nonzero;stroke:none;stroke-width:0.35277778;stroke-linecap:butt;stroke-linejoin:miter;stroke-miterlimit:4;stroke-dasharray:none;stroke-dashoffset:0;stroke-opacity:1"
         d="m 83.554319,35.877851 v 0.04134 l 0.169499,-0.04134 v 0.04134"
         id="path14913"
         inkscape:connector-curvature="0" />
      <path
         style="opacity:1;vector-effect:none;fill:#000000;fill-opacity:1;fill-rule:evenodd;stroke:none;stroke-width:0.35277778;stroke-linecap:butt;stroke-linejoin:miter;stroke-miterlimit:4;stroke-dasharray:none;stroke-dashoffset:0;stroke-opacity:1"
         d="m 86.47576,38.713857 -0.126778,-0.338999 -0.296277,-0.169499 -0.29628,0.169499 -0.126778,0.338999 0.126778,0.338994 0.29628,0.126782 0.296277,-0.126782 0.126778,-0.338994"
         id="path14915"
         inkscape:connector-curvature="0" />
      <path
         style="opacity:1;vector-effect:none;fill:#000000;fill-opacity:1;fill-rule:nonzero;stroke:none;stroke-width:0.35277778;stroke-linecap:butt;stroke-linejoin:miter;stroke-miterlimit:4;stroke-dasharray:none;stroke-dashoffset:0;stroke-opacity:1"
         d="m 86.3917,38.755195 -0.126778,-0.337619 0.04134,0.04134 -0.29628,-0.16812 h 0.08544 l -0.296277,0.16812 0.04134,-0.04134 -0.126778,0.337619 v -0.04134 l 0.126778,0.338994 -0.04134,-0.08544 0.296277,0.126777 h -0.08544 l 0.29628,-0.126777 -0.04134,0.08544 0.126778,-0.338994 0.169499,0.04134 -0.128157,0.338998 -0.04134,0.04272 -0.296277,0.126777 h -0.08544 l -0.296277,-0.126777 -0.04272,-0.04272 -0.126777,-0.338998 v -0.04134 l 0.126777,-0.338999 0.04272,-0.04272 0.296277,-0.169499 h 0.08544 l 0.296277,0.169499 0.04134,0.04272 0.128157,0.338999"
         id="path14917"
         inkscape:connector-curvature="0" />
      <path
         style="opacity:1;vector-effect:none;fill:#000000;fill-opacity:1;fill-rule:nonzero;stroke:none;stroke-width:0.35277778;stroke-linecap:butt;stroke-linejoin:miter;stroke-miterlimit:4;stroke-dasharray:none;stroke-dashoffset:0;stroke-opacity:1"
         d="m 86.3917,38.713857 v 0.04134 l 0.169499,-0.04134 v 0.04134"
         id="path14919"
         inkscape:connector-curvature="0" />
      <path
         style="opacity:1;vector-effect:none;fill:#000000;fill-opacity:1;fill-rule:evenodd;stroke:none;stroke-width:0.35277778;stroke-linecap:butt;stroke-linejoin:miter;stroke-miterlimit:4;stroke-dasharray:none;stroke-dashoffset:0;stroke-opacity:1"
         d="m 69.24615,29.399694 -0.126778,-0.380336 -0.29628,-0.126782 -0.296277,0.126782 -0.126781,0.380336 0.126781,0.338999 0.296277,0.126781 0.29628,-0.126781 0.126778,-0.338999"
         id="path14921"
         inkscape:connector-curvature="0" />
      <path
         style="opacity:1;vector-effect:none;fill:#000000;fill-opacity:1;fill-rule:nonzero;stroke:none;stroke-width:0.35277778;stroke-linecap:butt;stroke-linejoin:miter;stroke-miterlimit:4;stroke-dasharray:none;stroke-dashoffset:0;stroke-opacity:1"
         d="m 69.16209,29.442416 -0.126781,-0.380341 0.04134,0.04134 -0.296277,-0.126781 h 0.08544 l -0.29628,0.126781 0.04134,-0.04134 -0.126782,0.380341 v -0.04272 l 0.126782,0.338999 -0.04134,-0.08406 0.29628,0.126777 h -0.08544 l 0.296277,-0.126777 -0.04134,0.08406 0.126781,-0.338999 0.169499,0.04272 -0.128157,0.338994 -0.04134,0.04272 -0.296277,0.126778 h -0.08544 l -0.296281,-0.126778 -0.04272,-0.04272 -0.126778,-0.338994 v -0.04272 l 0.126778,-0.380336 0.04272,-0.08544 0.296281,-0.126777 h 0.08544 l 0.296277,0.126777 0.04134,0.08544 0.128157,0.380336"
         id="path14923"
         inkscape:connector-curvature="0" />
      <path
         style="opacity:1;vector-effect:none;fill:#000000;fill-opacity:1;fill-rule:nonzero;stroke:none;stroke-width:0.35277778;stroke-linecap:butt;stroke-linejoin:miter;stroke-miterlimit:4;stroke-dasharray:none;stroke-dashoffset:0;stroke-opacity:1"
         d="m 69.16209,29.399694 v 0.04272 l 0.169499,-0.04272 v 0.04272"
         id="path14925"
         inkscape:connector-curvature="0" />
      <path
         style="opacity:1;vector-effect:none;fill:#000000;fill-opacity:1;fill-rule:evenodd;stroke:none;stroke-width:0.35277778;stroke-linecap:butt;stroke-linejoin:miter;stroke-miterlimit:4;stroke-dasharray:none;stroke-dashoffset:0;stroke-opacity:1"
         d="m 75.808367,28.384082 -0.126778,-0.338998 -0.29628,-0.126778 -0.297657,0.126778 -0.126777,0.338998 0.126777,0.338995 0.297657,0.169499 0.29628,-0.169499 0.126778,-0.338995"
         id="path14927"
         inkscape:connector-curvature="0" />
      <path
         style="opacity:1;vector-effect:none;fill:#000000;fill-opacity:1;fill-rule:nonzero;stroke:none;stroke-width:0.35277778;stroke-linecap:butt;stroke-linejoin:miter;stroke-miterlimit:4;stroke-dasharray:none;stroke-dashoffset:0;stroke-opacity:1"
         d="m 75.722931,28.4268 -0.126781,-0.338998 0.04272,0.04272 -0.296277,-0.126781 h 0.08406 l -0.296277,0.126781 0.04272,-0.04272 -0.126778,0.338998 v -0.04272 l 0.126778,0.338995 -0.04272,-0.04272 0.296277,0.169499 h -0.08406 l 0.296277,-0.169499 -0.04272,0.04272 0.126781,-0.338995 0.169496,0.04272 -0.126778,0.338999 -0.04272,0.04134 -0.29628,0.169495 h -0.08406 l -0.296277,-0.169495 -0.04272,-0.04134 -0.126777,-0.338999 v -0.04272 l 0.126777,-0.338998 0.04272,-0.08406 0.296277,-0.126781 h 0.08406 l 0.29628,0.126781 0.04272,0.08406 0.126778,0.338998"
         id="path14929"
         inkscape:connector-curvature="0" />
      <path
         style="opacity:1;vector-effect:none;fill:#000000;fill-opacity:1;fill-rule:nonzero;stroke:none;stroke-width:0.35277778;stroke-linecap:butt;stroke-linejoin:miter;stroke-miterlimit:4;stroke-dasharray:none;stroke-dashoffset:0;stroke-opacity:1"
         d="m 75.722931,28.384082 v 0.04272 l 0.169496,-0.04272 v 0.04272"
         id="path14931"
         inkscape:connector-curvature="0" />
      <path
         style="opacity:1;vector-effect:none;fill:#000000;fill-opacity:1;fill-rule:evenodd;stroke:none;stroke-width:0.35277778;stroke-linecap:butt;stroke-linejoin:miter;stroke-miterlimit:4;stroke-dasharray:none;stroke-dashoffset:0;stroke-opacity:1"
         d="m 82.665485,26.733192 -0.126778,-0.380337 -0.296281,-0.128161 -0.296276,0.128161 -0.126778,0.380337 0.126778,0.338998 0.296276,0.126778 0.296281,-0.126778 0.126778,-0.338998"
         id="path14933"
         inkscape:connector-curvature="0" />
      <path
         style="opacity:1;vector-effect:none;fill:#000000;fill-opacity:1;fill-rule:nonzero;stroke:none;stroke-width:0.35277778;stroke-linecap:butt;stroke-linejoin:miter;stroke-miterlimit:4;stroke-dasharray:none;stroke-dashoffset:0;stroke-opacity:1"
         d="m 82.581425,26.77591 -0.126778,-0.381716 0.04134,0.04272 -0.296276,-0.126781 h 0.08544 l -0.296281,0.126781 0.04272,-0.04272 -0.128157,0.381716 v -0.04272 l 0.128157,0.338998 -0.04272,-0.08544 0.296281,0.126781 h -0.08544 l 0.296276,-0.126781 -0.04134,0.08544 0.126778,-0.338998 0.169499,0.04272 -0.126778,0.337622 -0.04272,0.04272 -0.296277,0.126778 h -0.08544 l -0.296277,-0.126778 -0.04134,-0.04272 -0.126782,-0.337622 v -0.04272 l 0.126782,-0.380337 0.04134,-0.08544 0.296277,-0.126781 h 0.08544 l 0.296277,0.126781 0.04272,0.08544 0.126778,0.380337"
         id="path14935"
         inkscape:connector-curvature="0" />
      <path
         style="opacity:1;vector-effect:none;fill:#000000;fill-opacity:1;fill-rule:nonzero;stroke:none;stroke-width:0.35277778;stroke-linecap:butt;stroke-linejoin:miter;stroke-miterlimit:4;stroke-dasharray:none;stroke-dashoffset:0;stroke-opacity:1"
         d="m 82.581425,26.733192 v 0.04272 l 0.169499,-0.04272 v 0.04272"
         id="path14937"
         inkscape:connector-curvature="0" />
      <path
         style="opacity:1;vector-effect:none;fill:#000000;fill-opacity:1;fill-rule:evenodd;stroke:none;stroke-width:0.35277778;stroke-linecap:butt;stroke-linejoin:miter;stroke-miterlimit:4;stroke-dasharray:none;stroke-dashoffset:0;stroke-opacity:1"
         d="m 67.764758,26.352855 -0.126777,-0.338998 -0.296281,-0.126781 -0.296277,0.126781 -0.126781,0.338998 0.126781,0.337619 0.296277,0.169499 0.296281,-0.169499 0.126777,-0.337619"
         id="path14939"
         inkscape:connector-curvature="0" />
      <path
         style="opacity:1;vector-effect:none;fill:#000000;fill-opacity:1;fill-rule:nonzero;stroke:none;stroke-width:0.35277778;stroke-linecap:butt;stroke-linejoin:miter;stroke-miterlimit:4;stroke-dasharray:none;stroke-dashoffset:0;stroke-opacity:1"
         d="m 67.679319,26.394194 -0.126778,-0.338995 0.04272,0.04272 -0.296277,-0.126782 h 0.08406 l -0.296277,0.126782 0.04272,-0.04272 -0.126778,0.338995 v -0.04134 l 0.126778,0.337619 -0.04272,-0.04134 0.296277,0.16812 h -0.08406 l 0.296277,-0.16812 -0.04272,0.04134 0.126778,-0.337619 0.169499,0.04134 -0.126777,0.338998 -0.04272,0.04272 -0.296277,0.169499 h -0.08406 l -0.296277,-0.169499 -0.04272,-0.04272 -0.126778,-0.338998 v -0.04134 l 0.126778,-0.338998 0.04272,-0.08544 0.296277,-0.126778 h 0.08406 l 0.296277,0.126778 0.04272,0.08544 0.126777,0.338998"
         id="path14941"
         inkscape:connector-curvature="0" />
      <path
         style="opacity:1;vector-effect:none;fill:#000000;fill-opacity:1;fill-rule:nonzero;stroke:none;stroke-width:0.35277778;stroke-linecap:butt;stroke-linejoin:miter;stroke-miterlimit:4;stroke-dasharray:none;stroke-dashoffset:0;stroke-opacity:1"
         d="m 67.679319,26.352855 v 0.04134 l 0.169499,-0.04134 v 0.04134"
         id="path14943"
         inkscape:connector-curvature="0" />
      <path
         style="opacity:1;vector-effect:none;fill:#000000;fill-opacity:1;fill-rule:evenodd;stroke:none;stroke-width:0.35277778;stroke-linecap:butt;stroke-linejoin:miter;stroke-miterlimit:4;stroke-dasharray:none;stroke-dashoffset:0;stroke-opacity:1"
         d="m 82.454647,29.019358 -0.126781,-0.338999 -0.296277,-0.126777 -0.296281,0.126777 -0.128157,0.338999 0.128157,0.338998 0.296281,0.169495 0.296277,-0.169495 0.126781,-0.338998"
         id="path14945"
         inkscape:connector-curvature="0" />
      <path
         style="opacity:1;vector-effect:none;fill:#000000;fill-opacity:1;fill-rule:nonzero;stroke:none;stroke-width:0.35277778;stroke-linecap:butt;stroke-linejoin:miter;stroke-miterlimit:4;stroke-dasharray:none;stroke-dashoffset:0;stroke-opacity:1"
         d="m 82.369208,29.062075 -0.126782,-0.338998 0.04272,0.04272 -0.296281,-0.128158 h 0.08406 l -0.296281,0.128158 0.04272,-0.04272 -0.126781,0.338998 v -0.04272 l 0.126781,0.338998 -0.04272,-0.04272 0.296281,0.1695 h -0.08406 l 0.296281,-0.1695 -0.04272,0.04272 0.126782,-0.338998 0.169499,0.04272 -0.126781,0.337619 -0.04272,0.04272 -0.296277,0.169499 h -0.08406 l -0.296276,-0.169499 -0.04272,-0.04272 -0.126782,-0.337619 v -0.04272 l 0.126782,-0.338999 0.04272,-0.08406 0.296276,-0.126781 h 0.08406 l 0.296277,0.126781 0.04272,0.08406 0.126781,0.338999"
         id="path14947"
         inkscape:connector-curvature="0" />
      <path
         style="opacity:1;vector-effect:none;fill:#000000;fill-opacity:1;fill-rule:nonzero;stroke:none;stroke-width:0.35277778;stroke-linecap:butt;stroke-linejoin:miter;stroke-miterlimit:4;stroke-dasharray:none;stroke-dashoffset:0;stroke-opacity:1"
         d="m 82.369208,29.019358 v 0.04272 l 0.169499,-0.04272 v 0.04272"
         id="path14949"
         inkscape:connector-curvature="0" />
      <path
         style="opacity:1;vector-effect:none;fill:#000000;fill-opacity:1;fill-rule:evenodd;stroke:none;stroke-width:0.35277778;stroke-linecap:butt;stroke-linejoin:miter;stroke-miterlimit:4;stroke-dasharray:none;stroke-dashoffset:0;stroke-opacity:1"
         d="m 71.616375,24.362966 -0.126777,-0.338998 -0.296281,-0.126778 -0.296277,0.126778 -0.126781,0.338998 0.126781,0.337619 0.296277,0.169499 0.296281,-0.169499 0.126777,-0.337619"
         id="path14951"
         inkscape:connector-curvature="0" />
      <path
         style="opacity:1;vector-effect:none;fill:#000000;fill-opacity:1;fill-rule:nonzero;stroke:none;stroke-width:0.35277778;stroke-linecap:butt;stroke-linejoin:miter;stroke-miterlimit:4;stroke-dasharray:none;stroke-dashoffset:0;stroke-opacity:1"
         d="m 71.532316,24.404308 -0.126782,-0.337619 0.04272,0.04134 -0.296281,-0.126778 h 0.08406 l -0.296281,0.126778 0.04272,-0.04134 -0.128161,0.337619 v -0.04134 l 0.128161,0.337619 -0.04272,-0.04134 0.296281,0.169499 h -0.08406 l 0.296281,-0.169499 -0.04272,0.04134 0.126782,-0.337619 0.169499,0.04134 -0.126782,0.338998 -0.04272,0.04272 -0.296277,0.169499 h -0.08406 l -0.297656,-0.169499 -0.04134,-0.04272 -0.126782,-0.338998 v -0.04134 l 0.126782,-0.338998 0.04134,-0.08544 0.297656,-0.126781 h 0.08406 l 0.296277,0.126781 0.04272,0.08544 0.126782,0.338998"
         id="path14953"
         inkscape:connector-curvature="0" />
      <path
         style="opacity:1;vector-effect:none;fill:#000000;fill-opacity:1;fill-rule:nonzero;stroke:none;stroke-width:0.35277778;stroke-linecap:butt;stroke-linejoin:miter;stroke-miterlimit:4;stroke-dasharray:none;stroke-dashoffset:0;stroke-opacity:1"
         d="m 71.532316,24.362966 v 0.04134 l 0.169499,-0.04134 v 0.04134"
         id="path14955"
         inkscape:connector-curvature="0" />
      <path
         style="opacity:1;vector-effect:none;fill:#000000;fill-opacity:1;fill-rule:evenodd;stroke:none;stroke-width:0.35277778;stroke-linecap:butt;stroke-linejoin:miter;stroke-miterlimit:4;stroke-dasharray:none;stroke-dashoffset:0;stroke-opacity:1"
         d="m 41.306426,42.608191 -0.126778,-0.338998 -0.296281,-0.169499 -0.296276,0.169499 -0.126782,0.338998 0.126782,0.338999 0.296276,0.126777 0.296281,-0.126777 0.126778,-0.338999"
         id="path14957"
         inkscape:connector-curvature="0" />
      <path
         style="opacity:1;vector-effect:none;fill:#000000;fill-opacity:1;fill-rule:nonzero;stroke:none;stroke-width:0.35277778;stroke-linecap:butt;stroke-linejoin:miter;stroke-miterlimit:4;stroke-dasharray:none;stroke-dashoffset:0;stroke-opacity:1"
         d="m 41.220986,42.650909 -0.126777,-0.338994 0.04272,0.04272 -0.296277,-0.169499 h 0.08406 l -0.296277,0.169499 0.04272,-0.04272 -0.126777,0.338994 v -0.04272 l 0.126777,0.338999 -0.04272,-0.08544 0.296277,0.126778 h -0.08406 l 0.296277,-0.126778 -0.04272,0.08544 0.126777,-0.338999 0.1695,0.04272 -0.126778,0.337619 -0.04272,0.04272 -0.296276,0.126777 h -0.08406 l -0.296277,-0.126777 -0.04272,-0.04272 -0.126777,-0.337619 v -0.04272 l 0.126777,-0.338998 0.04272,-0.04134 0.296277,-0.169495 h 0.08406 l 0.296276,0.169495 0.04272,0.04134 0.126778,0.338998"
         id="path14959"
         inkscape:connector-curvature="0" />
      <path
         style="opacity:1;vector-effect:none;fill:#000000;fill-opacity:1;fill-rule:nonzero;stroke:none;stroke-width:0.35277778;stroke-linecap:butt;stroke-linejoin:miter;stroke-miterlimit:4;stroke-dasharray:none;stroke-dashoffset:0;stroke-opacity:1"
         d="m 41.220986,42.608191 v 0.04272 l 0.1695,-0.04272 v 0.04272"
         id="path14961"
         inkscape:connector-curvature="0" />
      <path
         style="opacity:1;vector-effect:none;fill:#000000;fill-opacity:1;fill-rule:evenodd;stroke:none;stroke-width:0.35277778;stroke-linecap:butt;stroke-linejoin:miter;stroke-miterlimit:4;stroke-dasharray:none;stroke-dashoffset:0;stroke-opacity:1"
         d="m 61.329319,38.797916 -0.126777,-0.338998 -0.296277,-0.126778 -0.296281,0.126778 -0.126778,0.338998 0.126778,0.338999 0.296281,0.169495 0.296277,-0.169495 0.126777,-0.338999"
         id="path14963"
         inkscape:connector-curvature="0" />
      <path
         style="opacity:1;vector-effect:none;fill:#000000;fill-opacity:1;fill-rule:nonzero;stroke:none;stroke-width:0.35277778;stroke-linecap:butt;stroke-linejoin:miter;stroke-miterlimit:4;stroke-dasharray:none;stroke-dashoffset:0;stroke-opacity:1"
         d="m 61.245259,38.840634 -0.126777,-0.338998 0.04272,0.04272 -0.296277,-0.126781 h 0.08406 l -0.296277,0.126781 0.04272,-0.04272 -0.126781,0.338998 v -0.04272 l 0.126781,0.338999 -0.04272,-0.04272 0.296277,0.169499 h -0.08406 l 0.296277,-0.169499 -0.04272,0.04272 0.126777,-0.338999 0.1695,0.04272 -0.126778,0.338999 -0.04272,0.04134 -0.296276,0.169499 h -0.08406 l -0.296281,-0.169499 -0.04272,-0.04134 -0.126777,-0.338999 v -0.04272 l 0.126777,-0.338998 0.04272,-0.08406 0.296281,-0.126781 h 0.08406 l 0.296276,0.126781 0.04272,0.08406 0.126778,0.338998"
         id="path14965"
         inkscape:connector-curvature="0" />
      <path
         style="opacity:1;vector-effect:none;fill:#000000;fill-opacity:1;fill-rule:nonzero;stroke:none;stroke-width:0.35277778;stroke-linecap:butt;stroke-linejoin:miter;stroke-miterlimit:4;stroke-dasharray:none;stroke-dashoffset:0;stroke-opacity:1"
         d="m 61.245259,38.797916 v 0.04272 l 0.1695,-0.04272 v 0.04272"
         id="path14967"
         inkscape:connector-curvature="0" />
      <path
         style="opacity:1;vector-effect:none;fill:#000000;fill-opacity:1;fill-rule:evenodd;stroke:none;stroke-width:0.35277778;stroke-linecap:butt;stroke-linejoin:miter;stroke-miterlimit:4;stroke-dasharray:none;stroke-dashoffset:0;stroke-opacity:1"
         d="m 69.627866,36.766689 -0.128157,-0.38172 -0.296277,-0.126777 -0.29628,0.126777 -0.126778,0.38172 0.126778,0.337619 0.29628,0.128157 0.296277,-0.128157 0.128157,-0.337619"
         id="path14969"
         inkscape:connector-curvature="0" />
      <path
         style="opacity:1;vector-effect:none;fill:#000000;fill-opacity:1;fill-rule:nonzero;stroke:none;stroke-width:0.35277778;stroke-linecap:butt;stroke-linejoin:miter;stroke-miterlimit:4;stroke-dasharray:none;stroke-dashoffset:0;stroke-opacity:1"
         d="m 69.542427,36.808028 -0.126778,-0.380337 0.04272,0.04272 -0.296277,-0.128158 h 0.08406 l -0.296277,0.128158 0.04272,-0.04272 -0.126778,0.380337 v -0.04134 l 0.126778,0.337619 -0.04272,-0.08406 0.296277,0.126778 h -0.08406 l 0.296277,-0.126778 -0.04272,0.08406 0.126778,-0.337619 0.169499,0.04134 -0.126778,0.338998 -0.04272,0.04272 -0.296277,0.126781 h -0.08406 l -0.296277,-0.126781 -0.04272,-0.04272 -0.126778,-0.338998 v -0.04134 l 0.126778,-0.38172 0.04272,-0.08406 0.296277,-0.126777 h 0.08406 l 0.296277,0.126777 0.04272,0.08406 0.126778,0.38172"
         id="path14971"
         inkscape:connector-curvature="0" />
      <path
         style="opacity:1;vector-effect:none;fill:#000000;fill-opacity:1;fill-rule:nonzero;stroke:none;stroke-width:0.35277778;stroke-linecap:butt;stroke-linejoin:miter;stroke-miterlimit:4;stroke-dasharray:none;stroke-dashoffset:0;stroke-opacity:1"
         d="m 69.542427,36.766689 v 0.04134 l 0.169499,-0.04134 v 0.04134"
         id="path14973"
         inkscape:connector-curvature="0" />
      <path
         style="opacity:1;vector-effect:none;fill:#000000;fill-opacity:1;fill-rule:evenodd;stroke:none;stroke-width:0.35277778;stroke-linecap:butt;stroke-linejoin:miter;stroke-miterlimit:4;stroke-dasharray:none;stroke-dashoffset:0;stroke-opacity:1"
         d="m 79.449146,38.121299 -0.12816,-0.338998 -0.296277,-0.126778 -0.296277,0.126778 -0.126781,0.338998 0.126781,0.380337 0.296277,0.126781 0.296277,-0.126781 0.12816,-0.380337"
         id="path14975"
         inkscape:connector-curvature="0" />
      <path
         style="opacity:1;vector-effect:none;fill:#000000;fill-opacity:1;fill-rule:nonzero;stroke:none;stroke-width:0.35277778;stroke-linecap:butt;stroke-linejoin:miter;stroke-miterlimit:4;stroke-dasharray:none;stroke-dashoffset:0;stroke-opacity:1"
         d="m 79.363707,38.162641 -0.126781,-0.337619 0.04272,0.04134 -0.29628,-0.126778 h 0.08406 l -0.296277,0.126778 0.04272,-0.04134 -0.126778,0.337619 v -0.04134 l 0.126778,0.380337 -0.04272,-0.08406 0.296277,0.126781 h -0.08406 l 0.29628,-0.126781 -0.04272,0.08406 0.126781,-0.380337 0.169499,0.04134 -0.126781,0.381716 -0.04272,0.04272 -0.29628,0.126782 h -0.08406 l -0.296277,-0.126782 -0.04272,-0.04272 -0.126781,-0.381716 v -0.04134 l 0.126781,-0.338998 0.04272,-0.08544 0.296277,-0.126778 h 0.08406 l 0.29628,0.126778 0.04272,0.08544 0.126781,0.338998"
         id="path14977"
         inkscape:connector-curvature="0" />
      <path
         style="opacity:1;vector-effect:none;fill:#000000;fill-opacity:1;fill-rule:nonzero;stroke:none;stroke-width:0.35277778;stroke-linecap:butt;stroke-linejoin:miter;stroke-miterlimit:4;stroke-dasharray:none;stroke-dashoffset:0;stroke-opacity:1"
         d="m 79.363707,38.121299 v 0.04134 l 0.169499,-0.04134 v 0.04134"
         id="path14979"
         inkscape:connector-curvature="0" />
      <path
         style="opacity:1;vector-effect:none;fill:#000000;fill-opacity:1;fill-rule:evenodd;stroke:none;stroke-width:0.35277778;stroke-linecap:butt;stroke-linejoin:miter;stroke-miterlimit:4;stroke-dasharray:none;stroke-dashoffset:0;stroke-opacity:1"
         d="m 78.262652,42.524132 -0.126778,-0.381717 -0.296276,-0.126781 -0.296281,0.126781 -0.126778,0.381717 0.126778,0.337618 0.296281,0.126778 0.296276,-0.126778 0.126778,-0.337618"
         id="path14981"
         inkscape:connector-curvature="0" />
      <path
         style="opacity:1;vector-effect:none;fill:#000000;fill-opacity:1;fill-rule:nonzero;stroke:none;stroke-width:0.35277778;stroke-linecap:butt;stroke-linejoin:miter;stroke-miterlimit:4;stroke-dasharray:none;stroke-dashoffset:0;stroke-opacity:1"
         d="m 78.178592,42.565474 -0.126777,-0.380341 0.04272,0.04272 -0.296276,-0.128157 h 0.08406 l -0.296276,0.128157 0.04272,-0.04272 -0.126781,0.380341 v -0.04134 l 0.126781,0.337618 -0.04272,-0.08406 0.296276,0.126777 h -0.08406 l 0.296276,-0.126777 -0.04272,0.08406 0.126777,-0.337618 0.169499,0.04134 -0.126777,0.338994 -0.04272,0.04272 -0.296277,0.126777 h -0.08406 l -0.296281,-0.126777 -0.04272,-0.04272 -0.126777,-0.338994 v -0.04134 l 0.126777,-0.381717 0.04272,-0.08406 0.296281,-0.128161 h 0.08406 l 0.296277,0.128161 0.04272,0.08406 0.126777,0.381717"
         id="path14983"
         inkscape:connector-curvature="0" />
      <path
         style="opacity:1;vector-effect:none;fill:#000000;fill-opacity:1;fill-rule:nonzero;stroke:none;stroke-width:0.35277778;stroke-linecap:butt;stroke-linejoin:miter;stroke-miterlimit:4;stroke-dasharray:none;stroke-dashoffset:0;stroke-opacity:1"
         d="m 78.178592,42.524132 v 0.04134 l 0.169499,-0.04134 v 0.04134"
         id="path14985"
         inkscape:connector-curvature="0" />
      <path
         style="opacity:1;vector-effect:none;fill:#000000;fill-opacity:1;fill-rule:evenodd;stroke:none;stroke-width:0.35277778;stroke-linecap:butt;stroke-linejoin:miter;stroke-miterlimit:4;stroke-dasharray:none;stroke-dashoffset:0;stroke-opacity:1"
         d="m 77.925033,33.972026 -0.126777,-0.380337 -0.296281,-0.128161 -0.297656,0.128161 -0.126778,0.380337 0.126778,0.338998 0.297656,0.126778 0.296281,-0.126778 0.126777,-0.338998"
         id="path14987"
         inkscape:connector-curvature="0" />
      <path
         style="opacity:1;vector-effect:none;fill:#000000;fill-opacity:1;fill-rule:nonzero;stroke:none;stroke-width:0.35277778;stroke-linecap:butt;stroke-linejoin:miter;stroke-miterlimit:4;stroke-dasharray:none;stroke-dashoffset:0;stroke-opacity:1"
         d="m 77.839598,34.014744 -0.126782,-0.381716 0.04272,0.04272 -0.296277,-0.126781 h 0.08406 l -0.296277,0.126781 0.04272,-0.04272 -0.126778,0.381716 v -0.04272 l 0.126778,0.338998 -0.04272,-0.08544 0.296277,0.128157 h -0.08406 l 0.296277,-0.128157 -0.04272,0.08544 0.126782,-0.338998 0.169495,0.04272 -0.126778,0.338998 -0.04272,0.04134 -0.296281,0.126778 h -0.08406 l -0.296277,-0.126778 -0.04272,-0.04134 -0.126778,-0.338998 v -0.04272 l 0.126778,-0.380337 0.04272,-0.08544 0.296277,-0.126781 h 0.08406 l 0.296281,0.126781 0.04272,0.08544 0.126778,0.380337"
         id="path14989"
         inkscape:connector-curvature="0" />
      <path
         style="opacity:1;vector-effect:none;fill:#000000;fill-opacity:1;fill-rule:nonzero;stroke:none;stroke-width:0.35277778;stroke-linecap:butt;stroke-linejoin:miter;stroke-miterlimit:4;stroke-dasharray:none;stroke-dashoffset:0;stroke-opacity:1"
         d="m 77.839598,33.972026 v 0.04272 l 0.169495,-0.04272 v 0.04272"
         id="path14991"
         inkscape:connector-curvature="0" />
      <path
         style="opacity:1;vector-effect:none;fill:#000000;fill-opacity:1;fill-rule:nonzero;stroke:none;stroke-width:0.35277778;stroke-linecap:butt;stroke-linejoin:miter;stroke-miterlimit:4;stroke-dasharray:none;stroke-dashoffset:0;stroke-opacity:1"
         d="m 64.336199,41.592576 -0.128157,-2.455661 v 0.04272 l -0.337619,-2.371607 -0.592557,-2.327505 -0.762053,-2.202106 -1.016995,-2.073948 h 0.04272 l -1.142391,-1.989886 -1.354614,-1.861728 v 0.04134 l -1.524109,-1.69361 -1.650891,-1.565451 -1.820386,-1.35461 -1.947171,-1.227833 -2.032603,-1.015615 h 0.04272 l -2.159384,-0.804775 -2.243448,-0.592555 -2.328884,-0.338997 -2.412947,-0.12678 -2.412943,0.12678 h 0.04272 l -2.328887,0.338997 -2.243444,0.592555 -2.159388,0.804775 -2.031228,1.015615 -1.947167,1.227833 -1.820388,1.35461 h 0.04134 l -1.65089,1.565451 -1.52411,1.693609 v -0.04134 l -1.354612,1.861728 -1.185113,1.989886 -0.972895,2.073948 -0.804774,2.202106 -0.549837,2.327505 -0.381717,2.371605 v -0.04272 l -0.126779,2.455661 0.126779,2.454286 0.381717,2.371605 0.549837,2.286165 0.804774,2.200727 v -0.04272 l 0.972895,2.116667 1.185113,1.989885 1.354612,1.82039 1.52411,1.736326 1.65089,1.524113 h -0.04134 l -0.08544,0.126778 -1.65089,-1.52411 -1.52411,-1.73633 v -0.04134 l -1.354612,-1.82039 -1.185112,-1.989889 h -0.04272 l -0.972895,-2.116666 -0.804775,-2.202103 -0.549837,-2.28479 -0.381716,-2.371601 v -0.04272 l -0.12678,-2.454286 0.12678,-2.455661 0.381716,-2.370226 0.549837,-2.328887 0.804775,-2.200727 v -0.04272 L 20.223821,30.1204 h 0.04272 l 1.185112,-1.989886 1.354612,-1.863107 1.52411,-1.693609 1.65089,-1.565451 1.820388,-1.354614 1.947167,-1.227832 v -0.04272 l 2.032607,-1.015615 h 0.04272 l 2.158005,-0.804775 2.244828,-0.592555 2.327504,-0.338997 2.412943,-0.12678 2.412947,0.12678 h 0.04272 l 2.328884,0.338997 2.243448,0.592555 2.158008,0.804775 2.032607,1.015615 v 0.04272 l 1.947168,1.227832 1.820386,1.354614 h 0.04272 l 1.650887,1.565451 1.524113,1.693609 1.35461,1.863107 1.142394,1.989886 1.016991,2.073949 v 0.04272 l 0.760677,2.200727 0.593937,2.328887 0.337618,2.370226 0.126778,2.455661"
         id="path15001"
         inkscape:connector-curvature="0" />
      <path
         style="opacity:1;vector-effect:none;fill:#000000;fill-opacity:1;fill-rule:nonzero;stroke:none;stroke-width:0.35277778;stroke-linecap:butt;stroke-linejoin:miter;stroke-miterlimit:4;stroke-dasharray:none;stroke-dashoffset:0;stroke-opacity:1"
         d="m 26.066703,60.050022 1.820388,1.395952 1.947167,1.18649 v -0.04272 l 2.031228,1.015616 2.159388,0.804774 2.243444,0.592557 2.328887,0.380337 h -0.04272 l 2.412943,0.128157 2.412947,-0.128157 2.328884,-0.380337 2.243448,-0.592557 2.159384,-0.804774 h -0.04272 l 2.032603,-1.015616 v 0.04272 l 1.947171,-1.18649 1.820386,-1.395952 1.650891,-1.524113 1.524109,-1.736326 1.354614,-1.82039 1.142393,-1.989885 h -0.04272 l 1.016995,-2.116667 v 0.04272 l 0.762053,-2.200727 0.592557,-2.286165 0.337619,-2.371605 0.128157,-2.454286 h 0.16812 l -0.126778,2.454286 v 0.04272 l -0.337618,2.371601 -0.593937,2.28479 -0.760677,2.202103 -1.016991,2.116666 -1.142394,1.989889 -1.35461,1.82039 v 0.04134 l -1.524113,1.73633 -1.650887,1.52411 h -0.04272 l -1.820386,1.397331 -1.947168,1.185111 -2.032607,1.015616 -2.158008,0.804774 -2.243448,0.592557 -2.328884,0.380337 h -0.04272 l -2.412947,0.126781 -2.412943,-0.126781 -2.327504,-0.380337 -2.244828,-0.592557 -2.158005,-0.804774 h -0.04272 L 29.748819,62.759242 27.801652,61.574131 25.981264,60.1768"
         id="path15003"
         inkscape:connector-curvature="0" />
      <path
         style="opacity:1;vector-effect:none;fill:#000000;fill-opacity:1;fill-rule:nonzero;stroke:none;stroke-width:0.35277778;stroke-linecap:butt;stroke-linejoin:miter;stroke-miterlimit:4;stroke-dasharray:none;stroke-dashoffset:0;stroke-opacity:1"
         d="m 40.84065,42.608191 h -0.08406 l 0.04134,0.1695 h 0.08543"
         id="path15031"
         inkscape:connector-curvature="0" />
      <path
         style="opacity:1;vector-effect:none;fill:#000000;fill-opacity:1;fill-rule:nonzero;stroke:none;stroke-width:0.35277778;stroke-linecap:butt;stroke-linejoin:miter;stroke-miterlimit:4;stroke-dasharray:none;stroke-dashoffset:0;stroke-opacity:1"
         d="m 60.695423,38.755195 h 0.08406 l 0.04272,0.169499 h -0.08543"
         id="path15033"
         inkscape:connector-curvature="0" />
      <path
         style="opacity:1;vector-effect:none;fill:#000000;fill-opacity:1;fill-rule:nonzero;stroke:none;stroke-width:0.35277778;stroke-linecap:butt;stroke-linejoin:miter;stroke-miterlimit:4;stroke-dasharray:none;stroke-dashoffset:0;stroke-opacity:1"
         d="m 40.84065,42.608191 0.04272,0.1695 19.853399,-3.852997 -0.04134,-0.169499"
         id="path15035"
         inkscape:connector-curvature="0" />
      <path
         style="opacity:1;vector-effect:none;fill:#000000;fill-opacity:1;fill-rule:nonzero;stroke:none;stroke-width:0.35277778;stroke-linecap:butt;stroke-linejoin:miter;stroke-miterlimit:4;stroke-dasharray:none;stroke-dashoffset:0;stroke-opacity:1"
         d="m 66.410148,38.458918 -0.126781,-1.142393 v 0.04272 L 65.98709,36.300909 65.478593,35.369357 h 0.04272 l -0.635274,-0.847495 v 0.04272 l -0.804774,-0.676617 -0.931556,-0.508497 h 0.04272 l -1.015614,-0.296276 -1.058333,-0.126782 -1.101055,0.126782 h 0.04272 l -1.015615,0.296277 -0.931552,0.508497 h 0.04134 l -0.760677,0.676617 v -0.04272 l -0.677993,0.847495 -0.508497,0.931552 -0.296277,1.058334 v -0.04272 l -0.126781,1.142393 0.126781,1.101051 0.296277,1.058334 v -0.04272 l 0.508497,0.931555 0.677993,0.847492 0.760677,0.676618 -0.04134,-0.04272 0.931552,0.508498 1.015615,0.338998 h -0.04272 l 1.101055,0.08406 1.058333,-0.08406 1.015612,-0.338998 h -0.04272 l 0.931556,-0.508498 v 0.04272 l 0.804774,-0.676618 0.635275,-0.847492 h -0.04272 l 0.508497,-0.931555 v 0.04272 l 0.296277,-1.058334 0.126781,-1.101051 h 0.169499 l -0.126781,1.101051 v 0.04272 l -0.296277,1.058333 -0.508497,0.931552 -0.635275,0.846116 v 0.04272 l -0.804775,0.676617 h -0.04134 l -0.931552,0.508498 -1.015615,0.338998 h -0.04272 l -1.058333,0.08406 -1.101055,-0.08406 -1.015612,-0.338998 h -0.04272 l -0.931552,-0.508498 -0.762057,-0.676617 v -0.04272 l -0.676617,-0.846116 h -0.04272 l -0.508495,-0.931549 -0.296277,-1.058333 v -0.04272 l -0.126778,-1.101051 0.126778,-1.142393 0.296277,-1.058333 v -0.04272 l 0.508497,-0.931556 h 0.04272 l 0.676617,-0.846116 0.762057,-0.676617 v -0.04272 l 0.931552,-0.508498 h 0.04272 l 1.015612,-0.296276 1.101055,-0.126778 1.058333,0.126778 h 0.04272 l 1.015615,0.296276 0.931552,0.508498 0.04134,0.04272 0.804775,0.676617 0.635275,0.846116 0.508497,0.931556 v 0.04272 l 0.296277,1.058333 0.126781,1.142393"
         id="path15049"
         inkscape:connector-curvature="0" />
      <path
         style="opacity:1;vector-effect:none;fill:#000000;fill-opacity:1;fill-rule:nonzero;stroke:none;stroke-width:0.35277778;stroke-linecap:butt;stroke-linejoin:miter;stroke-miterlimit:4;stroke-dasharray:none;stroke-dashoffset:0;stroke-opacity:1"
         d="m 68.526815,41.465798 -0.126781,-0.974273 -0.254935,-0.888834 -0.46578,-0.847496 0.04272,0.04272 -0.54984,-0.676617 -0.719335,-0.592557 -0.804774,-0.465776 h 0.04272 L 64.801975,36.808028 63.870423,36.68125 h 0.04134 l -0.972897,0.126778 -0.888834,0.254938 -0.762053,0.465776 h 0.04134 l -0.719335,0.592557 -0.592557,0.676617 v -0.04272 l -0.423055,0.847496 -0.253559,0.888834 -0.12816,0.974273 v -0.04272 l 0.12816,0.972897 0.253559,0.89021 v -0.04272 l 0.423055,0.846116 0.592557,0.719335 h -0.04134 l 0.719339,0.551215 0.762053,0.465776 v -0.04272 l 0.888834,0.296277 h -0.04272 l 0.974273,0.08406 0.931552,-0.08406 0.888838,-0.296277 -0.04272,0.04272 0.804774,-0.465776 0.719335,-0.551215 0.54984,-0.719335 h -0.04272 l 0.46578,-0.846116 v 0.04272 l 0.254935,-0.89021 0.126781,-0.972897 0.169499,0.04272 -0.126781,0.972894 -0.254935,0.888835 -0.46578,0.847495 -0.549836,0.719335 -0.04272,0.04272 -0.719339,0.54984 -0.804774,0.465776 -0.888835,0.296276 h -0.04134 l -0.931552,0.08406 -0.974273,-0.08406 -0.888834,-0.296276 h -0.04272 l -0.762056,-0.465779 -0.719336,-0.54984 -0.592557,-0.720714 -0.04272,-0.04134 -0.423058,-0.847495 -0.253559,-0.888835 -0.126781,-0.972894 v -0.04272 l 0.126781,-0.97427 0.253559,-0.888838 v -0.04272 l 0.423058,-0.846116 h 0.04272 l 0.592557,-0.676617 0.719336,-0.593933 0.762056,-0.4644 0.04272,-0.04272 0.888834,-0.254939 0.974273,-0.126777 h 0.04134 l 0.931552,0.126777 0.888835,0.254939 v 0.04272 l 0.804774,0.4644 h 0.04272 l 0.719335,0.593933 0.549836,0.676617 0.46578,0.846116 v 0.04272 l 0.254935,0.888838 0.126781,0.97427"
         id="path15051"
         inkscape:connector-curvature="0" />
      <path
         style="opacity:1;vector-effect:none;fill:#000000;fill-opacity:1;fill-rule:nonzero;stroke:none;stroke-width:0.35277778;stroke-linecap:butt;stroke-linejoin:miter;stroke-miterlimit:4;stroke-dasharray:none;stroke-dashoffset:0;stroke-opacity:1"
         d="m 68.526815,41.423077 v 0.04272 l 0.169499,-0.04272 v 0.04272"
         id="path15053"
         inkscape:connector-curvature="0" />
      <path
         style="opacity:1;vector-effect:none;fill:#000000;fill-opacity:1;fill-rule:nonzero;stroke:none;stroke-width:0.35277778;stroke-linecap:butt;stroke-linejoin:miter;stroke-miterlimit:4;stroke-dasharray:none;stroke-dashoffset:0;stroke-opacity:1"
         d="m 61.711039,33.167252 -0.04272,0.04272 0.08544,0.126782 0.04134,-0.04134"
         id="path15055"
         inkscape:connector-curvature="0" />
      <path
         style="opacity:1;vector-effect:none;fill:#000000;fill-opacity:1;fill-rule:nonzero;stroke:none;stroke-width:0.35277778;stroke-linecap:butt;stroke-linejoin:miter;stroke-miterlimit:4;stroke-dasharray:none;stroke-dashoffset:0;stroke-opacity:1"
         d="m 66.156589,30.670248 0.04134,-0.04272 0.08544,0.126781 -0.04272,0.04272"
         id="path15057"
         inkscape:connector-curvature="0" />
      <path
         style="opacity:1;vector-effect:none;fill:#000000;fill-opacity:1;fill-rule:nonzero;stroke:none;stroke-width:0.35277778;stroke-linecap:butt;stroke-linejoin:miter;stroke-miterlimit:4;stroke-dasharray:none;stroke-dashoffset:0;stroke-opacity:1"
         d="m 61.711039,33.167252 0.08406,0.128157 4.44555,-2.498383 -0.08406,-0.126778"
         id="path15059"
         inkscape:connector-curvature="0" />
      <path
         style="opacity:1;vector-effect:none;fill:#000000;fill-opacity:1;fill-rule:nonzero;stroke:none;stroke-width:0.35277778;stroke-linecap:butt;stroke-linejoin:miter;stroke-miterlimit:4;stroke-dasharray:none;stroke-dashoffset:0;stroke-opacity:1"
         d="m 40.75659,42.650909 h 0.08406 v 0.169499 h -0.08406 z m 0,0"
         id="path15295"
         inkscape:connector-curvature="0" />
      <path
         style="opacity:1;vector-effect:none;fill:#000000;fill-opacity:1;fill-rule:nonzero;stroke:none;stroke-width:0.35277778;stroke-linecap:butt;stroke-linejoin:miter;stroke-miterlimit:4;stroke-dasharray:none;stroke-dashoffset:0;stroke-opacity:1"
         d="m 64.123982,42.058356 h 0.08406 v -0.1695 h -0.08406 z m 0,0"
         id="path15297"
         inkscape:connector-curvature="0" />
      <path
         style="opacity:1;vector-effect:none;fill:#000000;fill-opacity:1;fill-rule:nonzero;stroke:none;stroke-width:0.35277778;stroke-linecap:butt;stroke-linejoin:miter;stroke-miterlimit:4;stroke-dasharray:none;stroke-dashoffset:0;stroke-opacity:1"
         d="m 40.84065,42.650909 v 0.169499 l 23.283332,-0.762052 v -0.1695"
         id="path15299"
         inkscape:connector-curvature="0" />
      <path
         style="opacity:1;vector-effect:none;fill:#000000;fill-opacity:1;fill-rule:nonzero;stroke:none;stroke-width:0.35277778;stroke-linecap:butt;stroke-linejoin:miter;stroke-miterlimit:4;stroke-dasharray:none;stroke-dashoffset:0;stroke-opacity:1"
         d="m 64.420259,41.930195 -0.04272,-0.04134 -0.08406,0.126778 0.04272,0.04272"
         id="path15325"
         inkscape:connector-curvature="0" />
      <path
         style="opacity:1;vector-effect:none;fill:#000000;fill-opacity:1;fill-rule:nonzero;stroke:none;stroke-width:0.35277778;stroke-linecap:butt;stroke-linejoin:miter;stroke-miterlimit:4;stroke-dasharray:none;stroke-dashoffset:0;stroke-opacity:1"
         d="m 67.595259,44.046862 0.04272,0.04272 -0.08544,0.126778 -0.04134,-0.04134"
         id="path15327"
         inkscape:connector-curvature="0" />
      <path
         style="opacity:1;vector-effect:none;fill:#000000;fill-opacity:1;fill-rule:nonzero;stroke:none;stroke-width:0.35277778;stroke-linecap:butt;stroke-linejoin:miter;stroke-miterlimit:4;stroke-dasharray:none;stroke-dashoffset:0;stroke-opacity:1"
         d="m 64.420259,41.930195 -0.08406,0.128161 3.175,2.116666 0.08406,-0.12816"
         id="path15329"
         inkscape:connector-curvature="0" />
      <path
         style="opacity:1;vector-effect:none;fill:#000000;fill-opacity:1;fill-rule:nonzero;stroke:none;stroke-width:0.35277778;stroke-linecap:butt;stroke-linejoin:miter;stroke-miterlimit:4;stroke-dasharray:none;stroke-dashoffset:0;stroke-opacity:1"
         d="m 67.045423,33.295409 -0.126781,-1.270551 v 0.04272 l -0.338995,-1.143769 -0.551215,-1.015615 0.04272,0.04272 -0.719335,-0.888835 -0.847496,-0.762052 -1.015612,-0.551216 h 0.04272 l -1.101051,-0.38034 -1.185115,-0.126778 -1.185111,0.126778 h 0.04272 l -1.101051,0.38034 -0.974273,0.551216 h 0.04272 l -0.888834,0.762052 v -0.04272 l -0.677993,0.888834 -0.549839,1.015615 -0.338995,1.143769 v -0.04272 l -0.126781,1.270551 0.126781,1.226453 0.338995,1.143772 v -0.04272 l 0.549839,1.015612 0.677993,0.890214 0.888834,0.762056 h -0.04272 l 0.974273,0.549836 v -0.04272 l 1.101051,0.381717 h -0.04272 l 1.185111,0.126777 1.185115,-0.126777 1.101051,-0.381717 h -0.04272 l 1.015612,-0.549839 v 0.04272 l 0.847496,-0.762056 0.719335,-0.890214 h -0.04272 l 0.551215,-1.015612 v 0.04272 l 0.338995,-1.143772 0.126781,-1.226453 h 0.169499 l -0.128157,1.226453 v 0.04272 l -0.337619,1.143773 -0.551215,1.015612 v 0.04272 l -0.719338,0.888834 -0.846113,0.762053 h -0.04272 l -1.015611,0.54984 -1.101055,0.381716 h -0.04272 l -1.185115,0.126777 -1.185111,-0.126777 -1.101054,-0.381716 h -0.04272 L 57.94348,38.41757 57.054646,37.655517 v -0.04272 l -0.677997,-0.888834 h -0.04134 l -0.551215,-1.015612 -0.338995,-1.143773 v -0.04272 l -0.126781,-1.226453 0.126781,-1.270551 0.338995,-1.142393 v -0.04272 l 0.551215,-1.015612 h 0.04134 l 0.677997,-0.890214 0.888834,-0.762056 0.972894,-0.549836 0.04272,-0.04272 1.101054,-0.38034 1.185111,-0.126778 1.185115,0.126778 h 0.04272 l 1.101055,0.38034 1.015611,0.551215 0.04272,0.04134 0.846113,0.762056 0.719338,0.890214 0.551215,1.015612 v 0.04272 l 0.337619,1.142393 0.128157,1.270551"
         id="path15435"
         inkscape:connector-curvature="0" />
      <text
         id="text29180"
         y="40.363464"
         x="37.8004"
         style="font-style:normal;font-variant:normal;font-weight:normal;font-stretch:normal;font-size:4.63020849px;line-height:12.69999981px;font-family:'Times New Roman';-inkscape-font-specification:'Times New Roman, ';text-align:start;letter-spacing:0px;word-spacing:0px;text-anchor:start;fill:#000000;fill-opacity:1;stroke:none;stroke-width:0.26458332px;stroke-linecap:butt;stroke-linejoin:miter;stroke-opacity:1"
         xml:space="preserve"><tspan
           style="font-style:italic;font-variant:normal;font-weight:normal;font-stretch:normal;font-size:4.23333311px;font-family:'Times New Roman';-inkscape-font-specification:'Times New Roman, Italic';stroke-width:0.26458332px"
           y="40.363464"
           x="37.8004"
           id="tspan29178"
           sodipodi:role="line">p</tspan></text>
      <text
         id="text29184"
         y="38.379089"
         x="46.777332"
         style="font-style:italic;font-variant:normal;font-weight:normal;font-stretch:normal;line-height:12.69999981px;font-family:'Times New Roman';-inkscape-font-specification:'Times New Roman,  Italic';text-align:start;letter-spacing:0px;word-spacing:0px;baseline-shift:baseline;text-anchor:start;fill:#000000;fill-opacity:1;stroke:none;stroke-width:0.26458332px;stroke-linecap:butt;stroke-linejoin:miter;stroke-opacity:1"
         xml:space="preserve"><tspan
           style="font-style:italic;font-variant:normal;font-weight:normal;font-stretch:normal;font-size:4.23333311px;font-family:'Times New Roman';-inkscape-font-specification:'Times New Roman,  Italic';baseline-shift:baseline;stroke-width:0.26458332px"
           y="38.379089"
           x="46.777332"
           id="tspan29182"
           sodipodi:role="line">d<tspan
   id="tspan29186"
   style="font-size:64.99999762%;baseline-shift:sub">min</tspan></tspan></text>
      <text
         xml:space="preserve"
         style="font-style:italic;font-variant:normal;font-weight:normal;font-stretch:normal;line-height:12.69999981px;font-family:'Times New Roman';-inkscape-font-specification:'Times New Roman,  Italic';text-align:start;letter-spacing:0px;word-spacing:0px;baseline-shift:baseline;text-anchor:start;fill:#000000;fill-opacity:1;stroke:none;stroke-width:0.26458332px;stroke-linecap:butt;stroke-linejoin:miter;stroke-opacity:1"
         x="47.249805"
         y="47.072544"
         id="text29203"><tspan
           sodipodi:role="line"
           id="tspan29201"
           x="47.249805"
           y="47.072544"
           style="font-style:italic;font-variant:normal;font-weight:normal;font-stretch:normal;font-size:4.23333311px;font-family:'Times New Roman';-inkscape-font-specification:'Times New Roman,  Italic';baseline-shift:baseline;stroke-width:0.26458332px">d<tspan
   style="font-size:64.99999762%;baseline-shift:sub"
   id="tspan29199">max</tspan></tspan></text>
      <text
         id="text29207"
         y="48.57515"
         x="66.712799"
         style="font-style:normal;font-variant:normal;font-weight:normal;font-stretch:normal;font-size:4.63020849px;line-height:12.69999981px;font-family:'Open Sans';-inkscape-font-specification:'Open Sans';text-align:start;letter-spacing:0px;word-spacing:0px;text-anchor:start;fill:#000000;fill-opacity:1;stroke:none;stroke-width:0.26458332px;stroke-linecap:butt;stroke-linejoin:miter;stroke-opacity:1"
         xml:space="preserve"><tspan
           style="font-style:italic;font-variant:normal;font-weight:normal;font-stretch:normal;font-family:'Times New Roman';-inkscape-font-specification:'Times New Roman,  Italic';stroke-width:0.26458332px"
           y="48.57515"
           x="66.712799"
           id="tspan29205"
           sodipodi:role="line">i<tspan
   id="tspan29209"
   style="font-size:64.99999762%;baseline-shift:sub">min</tspan></tspan></text>
      <text
         xml:space="preserve"
         style="font-style:normal;font-variant:normal;font-weight:normal;font-stretch:normal;font-size:4.63020849px;line-height:12.69999981px;font-family:'Open Sans';-inkscape-font-specification:'Open Sans';text-align:start;letter-spacing:0px;word-spacing:0px;text-anchor:start;fill:#000000;fill-opacity:1;stroke:none;stroke-width:0.26458332px;stroke-linecap:butt;stroke-linejoin:miter;stroke-opacity:1"
         x="58.019348"
         y="30.715775"
         id="text29215"><tspan
           sodipodi:role="line"
           id="tspan29213"
           x="58.019348"
           y="30.715775"
           style="font-style:italic;font-variant:normal;font-weight:normal;font-stretch:normal;font-family:'Times New Roman';-inkscape-font-specification:'Times New Roman,  Italic';stroke-width:0.26458332px">i<tspan
   style="font-size:64.99999762%;baseline-shift:sub"
   id="tspan29211">max</tspan></tspan></text>
      <text
         xml:space="preserve"
         style="font-style:normal;font-variant:normal;font-weight:normal;font-stretch:normal;font-size:4.63020849px;line-height:12.69999981px;font-family:'Times New Roman';-inkscape-font-specification:'Times New Roman, ';text-align:start;letter-spacing:0px;word-spacing:0px;text-anchor:start;fill:#000000;fill-opacity:1;stroke:none;stroke-width:0.26458332px;stroke-linecap:butt;stroke-linejoin:miter;stroke-opacity:1"
         x="31.28031"
         y="24.393972"
         id="text29219"><tspan
           sodipodi:role="line"
           id="tspan29217"
           x="31.28031"
           y="24.393972"
           style="font-style:italic;font-variant:normal;font-weight:normal;font-stretch:normal;font-size:4.23333311px;font-family:'Times New Roman';-inkscape-font-specification:'Times New Roman, Italic';stroke-width:0.26458332px">MinPts = 3</tspan></text>
    </g>
  </g>
</svg>
